<svg width="32" height="32" viewBox="0 0 32 32" fill="none" xmlns="http://www.w3.org/2000/svg">
<circle cx="16" cy="16" r="16" transform="matrix(-1 0 0 1 32 0)" fill="#FFEDE9"/>
<mask id="mask0_130_294" style="mask-type:alpha" maskUnits="userSpaceOnUse" x="4" y="4" width="24" height="24">
<rect x="28" y="4" width="24" height="24" transform="rotate(90 28 4)" fill="#7A3527"/>
</mask>
<g mask="url(#mask0_130_294)">
<path d="M8 12L9.425 10.6L12 13.175L12 6L14 6L14 13.175L16.575 10.6L18 12L13 17L8 12ZM14 20L19 15L24 20L22.575 21.4L20 18.825L20 26L18 26L18 18.825L15.425 21.4L14 20Z" fill="#7A3527"/>
</g>
</svg>
