<svg width="332" height="48" viewBox="0 0 332 48" fill="none" xmlns="http://www.w3.org/2000/svg">
<path d="M62 30.75V15H77.75V17.25H66.5V21.75H75.5V24H66.5V30.75H62ZM86.75 21.75H89V24H86.75V30.75H82.25V19.5H86.75V21.75ZM95.75 19.5V21.75H89V19.5H95.75ZM100.25 30.75V28.5H98V26.25H100.25V24H109.25V21.75H100.25V19.5H111.5V21.75H113.75V30.75H100.25ZM102.5 28.5H109.25V26.25H102.5V28.5ZM118.25 30.75V28.5H116V21.75H118.25V19.5H131.75V21.75H120.5V28.5H131.75V30.75H118.25ZM140.75 30.75V21.75H136.25V19.5H140.75V15H145.25V19.5H149.75V21.75H145.25V30.75H140.75ZM154.25 30.75V28.5H152V26.25H154.25V24H163.25V21.75H154.25V19.5H165.5V21.75H167.75V30.75H154.25ZM156.5 28.5H163.25V26.25H156.5V28.5ZM172.25 30.75V28.5H176.75V17.25H174.5V15H181.25V28.5H185.75V30.75H172.25ZM212.75 30.75V17.25H208.25V15H221.75V17.25H217.25V30.75H212.75ZM230.75 21.75H233V24H230.75V30.75H226.25V19.5H230.75V21.75ZM239.75 19.5V21.75H233V19.5H239.75ZM248.75 17.25V15H253.25V17.25H248.75ZM244.25 30.75V28.5H248.75V21.75H246.5V19.5H253.25V28.5H257.75V30.75H244.25ZM262.25 30.75V28.5H260V15H264.5V19.5H273.5V21.75H275.75V28.5H273.5V30.75H262.25ZM264.5 28.5H271.25V21.75H264.5V28.5ZM280.25 30.75V28.5H278V19.5H282.5V28.5H289.25V19.5H293.75V30.75H280.25ZM302.75 30.75V21.75H298.25V19.5H302.75V15H307.25V19.5H311.75V21.75H307.25V30.75H302.75ZM316.25 30.75V28.5H314V21.75H316.25V19.5H327.5V21.75H329.75V26.25H318.5V28.5H327.5V30.75H316.25ZM318.5 24H325.25V21.75H318.5V24Z" fill="#262A33"/>
<g clip-path="url(#clip0_130_249)">
<path d="M36.7059 0H8.47058V5.64706H36.7059V0Z" fill="#262A33"/>
<path d="M36.7059 42.353H8.47058V48.0001H36.7059V42.353Z" fill="#262A33"/>
<path d="M5.64703 39.5295L5.64703 8.4707H-2.52724e-05L-2.52724e-05 39.5295H5.64703Z" fill="#262A33"/>
<path d="M45.1765 39.5295V8.4707H39.5295V39.5295H45.1765Z" fill="#262A33"/>
<path d="M39.5294 39.5293H36.7059V42.3528H39.5294V39.5293Z" fill="#262A33"/>
<path d="M8.47056 39.5293H5.64703V42.3528H8.47056V39.5293Z" fill="#262A33"/>
<path d="M39.5294 5.64697H36.7059V8.4705H39.5294V5.64697Z" fill="#262A33"/>
<path d="M8.47056 5.64697H5.64703V8.4705H8.47056V5.64697Z" fill="#262A33"/>
<path d="M31.0588 13.4116H23.2941V16.2352H31.0588V13.4116Z" fill="#262A33"/>
<path d="M23.2941 16.2354H19.7647V21.8824H23.2941V16.2354Z" fill="#262A33"/>
<path d="M23.2941 24.7061H19.7647V36.0002H23.2941V24.7061Z" fill="#262A33"/>
<path d="M19.7647 21.8823H14.1177V24.7059H19.7647V21.8823Z" fill="#E94B2A"/>
<path d="M31.0588 21.8823H23.2941V24.7059H31.0588V21.8823Z" fill="#E94B2A"/>
</g>
<defs>
<clipPath id="clip0_130_249">
<rect width="45.1765" height="48" fill="white"/>
</clipPath>
</defs>
</svg>
