<svg width="56" height="54" viewBox="0 0 56 54" fill="none" xmlns="http://www.w3.org/2000/svg">
<path d="M28.3109 54.7711L16.7031 43.1622L20.5952 39.2699L25.5797 44.2548V32.9191H31.0422L30.9739 44.1866L35.9584 39.2016L39.9188 43.1622L28.3109 54.7711ZM12.6062 39.065L0.998436 27.4561L12.538 15.9155L16.43 19.8079L11.5137 24.7246H22.8484V30.1876H11.582L16.5666 35.1043L12.6062 39.065ZM44.0156 39.065L40.1236 35.1726L45.1081 30.1876H33.7734V24.7246L45.0398 24.7929L40.0553 19.8079L44.0156 15.8472L55.6234 27.4561L44.0156 39.065ZM25.5797 21.9931V10.6574L20.5952 15.6424L16.7031 11.75L28.3109 0.141113L39.9188 11.75L36.0267 15.6424L31.0422 10.6574V21.9931H25.5797Z" fill="#D8C8C5"/>
</svg>
