<svg width="59" height="55" viewBox="0 0 59 55" fill="none" xmlns="http://www.w3.org/2000/svg">
<path d="M58.2422 45.1203L52.7799 39.8275V13.0326H41.7189L36.7346 7.73976H25.1273L22.5328 10.5185L18.6409 6.74736L22.7376 2.44695H39.1243L44.1769 7.73976H52.7799C54.282 7.73976 55.5679 8.25802 56.6376 9.29453C57.7073 10.331 58.2422 11.5771 58.2422 13.0326V45.1203ZM9.082 50.0823C7.57988 50.0823 6.29398 49.564 5.22429 48.5275C4.1546 47.491 3.61976 46.245 3.61976 44.7895V13.0326C3.61976 11.5771 4.1546 10.331 5.22429 9.29453C6.29398 8.25802 7.57988 7.73976 9.082 7.73976H11.8814L17.3436 13.0326H9.082V44.7895H50.1171L55.5793 50.0823H9.082ZM40.8995 35.8578C39.7616 37.3575 38.3391 38.5594 36.6322 39.4636C34.9252 40.3678 33.0248 40.8199 30.931 40.8199C27.5171 40.8199 24.6152 39.6621 22.2255 37.3464C19.8358 35.0308 18.6409 32.219 18.6409 28.911C18.6409 26.8821 19.1075 25.0407 20.0406 23.3867C20.9737 21.7326 22.2141 20.3543 23.7618 19.2516L27.7219 23.0889C26.6294 23.6623 25.7532 24.4562 25.0932 25.4707C24.4332 26.4852 24.1032 27.6319 24.1032 28.911C24.1032 30.7635 24.7632 32.3293 26.0832 33.6084C27.4033 34.8875 29.0192 35.527 30.931 35.527C32.251 35.527 33.4345 35.2073 34.4814 34.5677C35.5283 33.9282 36.3477 33.0791 36.9394 32.0206L40.8995 35.8578ZM39.6705 20.4425C40.8085 21.5011 41.6847 22.7581 42.2992 24.2137C42.9137 25.6692 43.221 27.235 43.221 28.911V29.7049C43.221 29.9696 43.1982 30.2342 43.1527 30.4989L29.2923 17.0684C29.5654 17.0242 29.8385 17.0022 30.1116 17.0022H30.931C32.6607 17.0022 34.2766 17.2999 35.7787 17.8954C37.2808 18.4908 38.5781 19.3399 39.6705 20.4425ZM54.0772 56.169L0.00102234 3.77015L3.89287 -0.000976562L57.969 52.3979L54.0772 56.169Z" fill="#D8C8C5"/>
</svg>
