<svg width="92" height="92" viewBox="0 0 92 92" fill="none" xmlns="http://www.w3.org/2000/svg">
<path d="M72.4282 0.766113H19.0843V11.4349H72.4282V0.766113Z" fill="#262A33"/>
<path d="M72.4282 80.782H19.0843V91.4508H72.4282V80.782Z" fill="#262A33"/>
<path d="M13.75 75.4478L13.75 16.7695H3.08118L3.08118 75.4478H13.75Z" fill="#262A33"/>
<path d="M88.4314 75.4478V16.7695H77.7626V75.4478H88.4314Z" fill="#262A33"/>
<path d="M77.7626 75.4473H72.4282V80.7817H77.7626V75.4473Z" fill="#262A33"/>
<path d="M19.0843 75.4473H13.75V80.7817H19.0843V75.4473Z" fill="#262A33"/>
<path d="M77.7626 11.4348H72.4282V16.7692H77.7626V11.4348Z" fill="#262A33"/>
<path d="M19.0843 11.4348H13.75V16.7692H19.0843V11.4348Z" fill="#262A33"/>
<path d="M61.7594 26.1047H47.0899V31.4391H61.7594V26.1047Z" fill="#262A33"/>
<path d="M47.0899 31.439H40.4219V42.1077H47.0899V31.439Z" fill="#262A33"/>
<path d="M47.0899 47.4419H40.4219V68.7794H47.0899V47.4419Z" fill="#262A33"/>
<path d="M40.4219 42.1077H29.7531V47.4421H40.4219V42.1077Z" fill="#E94B2A"/>
<path d="M61.7594 42.1077H47.0899V47.4421H61.7594V42.1077Z" fill="#E94B2A"/>
</svg>
