<svg width="122" height="93" viewBox="0 0 122 93" fill="none" xmlns="http://www.w3.org/2000/svg">
<path d="M24.2553 92.9305C17.5855 92.9305 11.8757 90.6556 7.12599 86.1059C2.37627 81.5562 0.00140381 76.0869 0.00140381 69.698V23.233C0.00140381 16.8441 2.37627 11.3747 7.12599 6.82504C11.8757 2.27534 17.5855 0.000488281 24.2553 0.000488281H97.017C103.687 0.000488281 109.397 2.27534 114.146 6.82504C118.896 11.3747 121.271 16.8441 121.271 23.233V69.698C121.271 76.0869 118.896 81.5562 114.146 86.1059C109.397 90.6556 103.687 92.9305 97.017 92.9305H24.2553ZM24.2553 23.233H97.017C99.2403 23.233 101.363 23.475 103.384 23.959C105.405 24.443 107.325 25.2174 109.144 26.2823V23.233C109.144 20.0385 107.957 17.3039 105.582 15.029C103.207 12.7542 100.352 11.6167 97.017 11.6167H24.2553C20.9204 11.6167 18.0655 12.7542 15.6907 15.029C13.3158 17.3039 12.1284 20.0385 12.1284 23.233V26.2823C13.9474 25.2174 15.8675 24.443 17.8887 23.959C19.9098 23.475 22.032 23.233 24.2553 23.233ZM13.0379 42.1094L80.4941 57.7913C81.4036 57.9849 82.3131 57.9849 83.2226 57.7913C84.1321 57.5977 84.9911 57.2105 85.7996 56.6297L106.87 39.7861C105.759 38.3341 104.344 37.1483 102.626 36.2287C100.908 35.309 99.0382 34.8492 97.017 34.8492H24.2553C21.6278 34.8492 19.3287 35.5027 17.3581 36.8095C15.3875 38.1163 13.9474 39.8829 13.0379 42.1094Z" fill="#D8C8C5"/>
</svg>
